HIERARCHY
ROOT Hips
{
	OFFSET	0.00	0.00	0.00
	CHANNELS 6 Xposition Yposition Zposition Zrotation Xrotation Yrotation
	JOINT LeftUpLeg
	{
		OFFSET	 0.126116	-0.014019	-0.065224
		CHANNELS 3 Zrotation Xrotation Yrotation
		JOINT LeftLeg
		{
			OFFSET	 0.000000	 0.000000	 0.569914
			CHANNELS 3 Zrotation Xrotation Yrotation
			JOINT LeftFoot
			{
				OFFSET	 0.000000	 0.000000	 0.544423
				CHANNELS 3 Zrotation Xrotation Yrotation
				JOINT LeftToeBase
				{
					OFFSET	 0.000000	 0.000000	 0.207117
					CHANNELS 3 Zrotation Xrotation Yrotation
					End Site
					{
						OFFSET	 0.000000	 0.000000	 0.207117
					}
				}
			}
		}
	}
	JOINT RightUpLeg
	{
		OFFSET	-0.124023	-0.008373	-0.065224
		CHANNELS 3 Zrotation Xrotation Yrotation
		JOINT RightLeg
		{
			OFFSET	 0.000000	 0.000000	 0.570047
			CHANNELS 3 Zrotation Xrotation Yrotation
			JOINT RightFoot
			{
				OFFSET	 0.000000	 0.000000	 0.544354
				CHANNELS 3 Zrotation Xrotation Yrotation
				JOINT RightToeBase
				{
					OFFSET	 0.000000	 0.000000	 0.207540
					CHANNELS 3 Zrotation Xrotation Yrotation
					End Site
					{
						OFFSET	 0.000000	 0.000000	 0.207540
					}
				}
			}
		}
	}
	JOINT Spine
	{
		OFFSET	 0.000184	-0.007763	 0.117403
		CHANNELS 3 Zrotation Xrotation Yrotation
		JOINT Spine1
		{
			OFFSET	 0.000000	 0.000000	 0.137269
			CHANNELS 3 Zrotation Xrotation Yrotation
			JOINT Spine2
			{
				OFFSET	 0.000000	 0.000000	 0.156879
				CHANNELS 3 Zrotation Xrotation Yrotation
				JOINT LeftShoulder
				{
					OFFSET	 0.080501	-0.002496	 0.160144
					CHANNELS 3 Zrotation Xrotation Yrotation
					JOINT LeftArm
					{
						OFFSET	 0.000000	 0.000000	 0.164363
						CHANNELS 3 Zrotation Xrotation Yrotation
						JOINT LeftForeArm
						{
							OFFSET	 0.000000	 0.000000	 0.364576
							CHANNELS 3 Zrotation Xrotation Yrotation
							JOINT LeftHand
							{
								OFFSET	 0.000000	 0.000000	 0.360812
								CHANNELS 3 Zrotation Xrotation Yrotation
								JOINT LeftHandIndex1
								{
									OFFSET	 0.000000	 0.000000	 0.086006
									CHANNELS 3 Zrotation Xrotation Yrotation
									JOINT LeftHandIndex2
									{
										OFFSET	 0.000000	 0.000000	 0.047236
										CHANNELS 3 Zrotation Xrotation Yrotation
										JOINT LeftHandIndex3
										{
											OFFSET	-0.004284	-0.000551	 0.038166
											CHANNELS 3 Zrotation Xrotation Yrotation
											End Site
											{
												OFFSET	-0.004284	-0.000551	 0.038166
											}
										}
									}
								}
							}
						}
					}
				}
				JOINT Neck
				{
					OFFSET	 0.000000	 0.000000	 0.176489
					CHANNELS 3 Zrotation Xrotation Yrotation
					JOINT Head
					{
						OFFSET	 0.000000	-0.001747	 0.077940
						CHANNELS 3 Zrotation Xrotation Yrotation
						End Site
						{
							OFFSET	 0.000000	-0.001747	 0.077940
						}
					}
				}
				JOINT RightShoulder
				{
					OFFSET	-0.080363	 0.000306	 0.159706
					CHANNELS 3 Zrotation Xrotation Yrotation
					JOINT RightArm
					{
						OFFSET	 0.000000	 0.000000	 0.164196
						CHANNELS 3 Zrotation Xrotation Yrotation
						JOINT RightForeArm
						{
							OFFSET	 0.000000	 0.000000	 0.365611
							CHANNELS 3 Zrotation Xrotation Yrotation
							JOINT RightHand
							{
								OFFSET	 0.000000	 0.000000	 0.360648
								CHANNELS 3 Zrotation Xrotation Yrotation
								JOINT RightHandIndex1
								{
									OFFSET	 0.000000	 0.000000	 0.069977
									CHANNELS 3 Zrotation Xrotation Yrotation
									JOINT RightHandIndex2
									{
										OFFSET	 0.000000	 0.000000	 0.052305
										CHANNELS 3 Zrotation Xrotation Yrotation
										JOINT RightHandIndex3
										{
											OFFSET	 0.009002	-0.000782	 0.042196
											CHANNELS 3 Zrotation Xrotation Yrotation
											End Site
											{
												OFFSET	 0.009002	-0.000782	 0.042196
											}
										}
									}
								}
							}
						}
					}
				}
			}
		}
	}
}
MOTION
Frames:    5
Frame Time: 0.03333334
 0.011617	 0.030533	 1.220197	 179.314500	 0.383769	-0.261089	-19.006400	-12.873890	-172.345200	-0.714385	-35.833190	-5.751697	 73.560790	 87.781070	-88.024350	-2.225755	 45.303930	-0.428214	 9.793546	-11.937530	 174.550600	 5.844820	-36.655060	 8.426031	-91.687550	 84.025510	 102.406500	 2.346476	 34.716320	 0.143706	-3.514214	 5.337174	 2.270807	-0.977871	 6.157084	-2.332571	 6.782352	-22.668500	 4.923997	-91.229190	 83.958340	 178.242500	 152.612100	 63.403000	-120.566200	-4.259148	-22.762420	-62.964870	 20.621380	-24.558120	-9.340055	-11.285720	 8.812333	-23.906300	-5.213937	-0.202400	 3.566957	-1.378229	 35.397820	-2.634230	-1.217912	 7.247090	 5.031919	-2.463630	-19.782900	-6.735144	 87.726850	 87.419040	-176.798800	-136.552200	 47.880030	 111.237500	 4.718653	-25.022430	 59.909350	-31.136010	-21.950300	 20.158490	-1.295997	 24.800190	-62.528850	 5.070519	-0.690904	-9.399550	-2.350882	 35.473990	 5.254307
 0.011849	 0.036603	 1.216078	 179.637200	 0.475787	 0.409565	-19.889860	-11.458010	-174.178900	-1.476460	-40.501110	-6.910460	 175.752700	 84.513950	 169.939200	-2.227772	 45.178420	-0.424338	 10.128640	-10.033040	 176.336600	 6.573990	-39.759100	 9.501040	-149.716800	 83.577310	 159.643100	 2.351716	 34.025260	 0.127248	-3.470108	 5.259962	 1.398509	-1.027584	 10.630470	-2.422610	 6.613924	-25.132110	 4.961715	-91.229370	 83.958240	 178.242700	 77.005140	 74.528420	-56.724040	 4.165701	-16.483510	-38.669950	 19.802410	-27.206400	-9.756610	-11.378200	 8.808907	-24.224410	-5.213937	-0.202400	 3.566957	-1.378229	 35.397820	-2.634230	-1.281501	 7.172128	 5.195373	-2.629319	-19.837620	-7.004776	 87.726910	 87.419040	-176.798900	-96.392700	 62.988050	 81.295820	-5.280371	-16.132840	 32.371270	-30.172810	-24.401650	 20.807810	-0.923824	 25.281880	-62.184470	 5.070519	-0.690904	-9.399550	-2.350882	 35.473990	 5.254307
 0.012083	 0.037406	 1.216147	 179.714700	 0.529523	 0.557125	-20.104040	-11.132190	-174.567500	-1.636440	-40.890350	-7.040719	 178.644600	 83.774490	 167.089400	-2.226434	 45.261630	-0.426906	 10.170830	-9.631153	 176.573300	 6.609046	-39.868840	 9.545852	-154.819500	 83.221120	 164.628100	 2.352610	 33.902730	 0.124362	-3.445431	 5.211249	 1.199351	-1.009635	 11.282950	-2.310082	 6.476174	-25.543260	 4.843857	-91.229230	 83.958310	 178.242600	 63.576240	 72.636130	-48.080410	 6.589258	-13.021240	-29.280360	 19.579890	-27.859470	-9.886947	-11.461430	 8.655714	-24.392610	-5.213937	-0.202400	 3.566957	-1.378229	 35.397820	-2.634230	-1.304217	 7.150700	 5.237024	-2.678804	-19.867780	-7.078956	 87.727190	 87.418890	-176.799100	-85.994020	 62.808640	 76.640360	-8.073419	-10.934250	 20.954910	-29.986480	-25.047220	 20.995180	-0.909559	 25.268470	-62.023200	 5.070519	-0.690904	-9.399550	-2.350882	 35.473990	 5.254307
 0.012377	 0.037912	 1.216413	 179.797500	 0.590506	 0.651948	-20.227560	-10.902160	-174.848000	-1.715364	-41.089740	-7.121590	-179.731700	 83.295490	 165.518100	-2.225219	 45.336450	-0.429235	 10.199700	-9.351054	 176.741000	 6.623559	-39.889450	 9.559560	-157.810800	 82.972470	 167.554600	 2.353409	 33.792490	 0.121764	-3.429669	 5.148324	 1.058744	-0.996588	 11.733220	-2.186601	 6.332733	-25.850690	 4.715319	-91.229260	 83.958370	 178.242600	 55.343700	 70.697440	-44.678970	 8.388356	-9.191682	-20.094880	 19.374840	-28.448400	-10.009760	-11.536580	 8.518226	-24.543900	-5.213937	-0.202400	 3.566957	-1.378229	 35.397820	-2.634230	-1.324632	 7.131424	 5.274476	-2.724094	-19.894610	-7.145910	 87.726840	 87.418960	-176.798800	-75.304120	 61.766170	 76.045650	-10.157510	-1.308042	 2.657623	-29.812850	-25.628520	 21.170640	-0.896689	 25.256450	-61.878180	 5.070519	-0.690904	-9.399550	-2.350882	 35.473990	 5.254307
 0.012654	 0.038265	 1.216716	 179.883200	 0.651939	 0.738311	-20.333300	-10.731710	-175.089100	-1.786812	-41.231010	-7.189543	-178.601200	 82.928990	 164.438900	-2.223971	 45.414070	-0.431639	 10.214390	-9.139551	 176.856900	 6.632563	-39.883330	 9.564362	-159.852800	 82.774850	 169.549800	 2.354242	 33.678150	 0.119062	-3.410983	 5.078650	 0.926387	-0.974762	 12.089780	-2.066857	 6.173150	-26.117550	 4.576846	-91.229260	 83.958370	 178.242600	 48.342670	 68.423490	-44.787980	 9.836391	-3.188357	-6.985655	 19.157360	-29.059410	-10.142720	-11.614850	 8.375928	-24.700880	-5.213937	-0.202400	 3.566957	-1.378229	 35.397820	-2.634230	-1.345785	 7.111399	 5.313291	-2.771873	-19.922090	-7.215579	 87.727040	 87.418960	-176.799000	-71.901300	 61.278110	 73.441730	-10.296780	-0.242320	 0.729221	-29.626850	-26.230720	 21.359290	-0.883311	 25.244030	-61.727790	 5.070519	-0.690904	-9.399550	-2.350882	 35.473990	 5.254307
